<svg xmlns="http://www.w3.org/2000/svg" width="1200" height="720" viewBox="0 0 1200 720" role="img" aria-label="Security Trust Chain">
  <defs>
    <linearGradient id="bg" x1="0" y1="0" x2="1" y2="1"><stop offset="0" stop-color="#eef7ff"/><stop offset="1" stop-color="#f7fbff"/></linearGradient>
    <linearGradient id="blue" x1="0" y1="0" x2="1" y2="1"><stop offset="0" stop-color="#174e86"/><stop offset="1" stop-color="#0e766e"/></linearGradient>
    <linearGradient id="violet" x1="0" y1="0" x2="1" y2="1"><stop offset="0" stop-color="#5b4cc4"/><stop offset="1" stop-color="#0e7490"/></linearGradient>
    <marker id="arrow" viewBox="0 0 12 12" refX="10" refY="6" markerWidth="10" markerHeight="10" orient="auto-start-reverse"><path d="M2 2 L10 6 L2 10 Z" fill="#174e86"/></marker>
    <filter id="shadow" x="-20%" y="-20%" width="140%" height="140%"><feDropShadow dx="0" dy="12" stdDeviation="14" flood-color="#0f172a" flood-opacity=".16"/></filter>
    <style>
      .title{font:900 34px Arial,sans-serif;fill:#0f172a}
      .sub{font:600 18px Arial,sans-serif;fill:#526176}
      .label{font:800 18px Arial,sans-serif;fill:#0f172a}
      .small{font:600 14px Arial,sans-serif;fill:#526176}
      .tiny{font:700 12px Arial,sans-serif;fill:#526176}
      .white{fill:#fff}
      .line{stroke:#174e86;stroke-width:5;fill:none;marker-end:url(#arrow);stroke-linecap:round;stroke-linejoin:round}
      .line2{stroke:#0e766e;stroke-width:4;fill:none;marker-end:url(#arrow);stroke-linecap:round;stroke-linejoin:round}
      .dash{stroke:#64748b;stroke-width:4;fill:none;stroke-dasharray:10 9;marker-end:url(#arrow);stroke-linecap:round}
      .box{fill:#fff;stroke:#dbe6f4;stroke-width:2;filter:url(#shadow)}
      .soft{fill:#ecf3fb;stroke:#dbe6f4;stroke-width:2}
      .blue{fill:url(#blue);filter:url(#shadow)}
      .violet{fill:url(#violet);filter:url(#shadow)}
    </style>
  </defs>
  <rect width="1200" height="720" rx="34" fill="url(#bg)"/>
  <circle cx="1110" cy="90" r="160" fill="#0e766e" opacity=".10"/>
  <circle cx="120" cy="625" r="185" fill="#174e86" opacity=".10"/>
  <text class="title" x="52" y="62">Security Trust Chain</text>
  <text class="sub" x="52" y="93">Identity first, keys second, encrypted data third</text>
  
  <path class="line" d="M135 370 C245 250 370 250 470 365"/>
  <path class="line" d="M520 365 C640 250 760 250 875 365"/>
  <path class="line2" d="M170 455 H1000"/>
  <circle class="blue" cx="140" cy="385" r="58"/><text class="white label" x="140" y="391" text-anchor="middle">User</text>
  <rect class="box" x="315" y="300" width="190" height="135" rx="22"/><text class="label" x="410" y="345" text-anchor="middle">Certificate</text><text class="small" x="410" y="374" text-anchor="middle">identity + public key</text><path d="M366 395 h88" stroke="#0e766e" stroke-width="8" stroke-linecap="round"/>
  <circle class="violet" cx="665" cy="385" r="62"/><text class="white label" x="665" y="378" text-anchor="middle">Key</text><text class="white small" x="665" y="404" text-anchor="middle">exchange</text>
  <rect class="box" x="860" y="305" width="210" height="135" rx="22"/><text class="label" x="965" y="348" text-anchor="middle">Encrypted</text><text class="small" x="965" y="377" text-anchor="middle">records + integrity</text><path d="M916 398 q48 -44 96 0" stroke="#174e86" stroke-width="7" fill="none"/>
  <rect class="soft" x="150" y="505" width="890" height="82" rx="20"/><text class="label" x="595" y="540" text-anchor="middle">Trust is established before sensitive data is displayed</text><text class="small" x="595" y="568" text-anchor="middle">PQC changes the vulnerable public-key parts of this path, not the entire application.</text>

</svg>