<svg xmlns="http://www.w3.org/2000/svg" width="1200" height="720" viewBox="0 0 1200 720" role="img" aria-label="Protocol Stack Impact">
  <defs>
    <linearGradient id="bg" x1="0" y1="0" x2="1" y2="1"><stop offset="0" stop-color="#eef7ff"/><stop offset="1" stop-color="#f7fbff"/></linearGradient>
    <linearGradient id="blue" x1="0" y1="0" x2="1" y2="1"><stop offset="0" stop-color="#174e86"/><stop offset="1" stop-color="#0e766e"/></linearGradient>
    <linearGradient id="violet" x1="0" y1="0" x2="1" y2="1"><stop offset="0" stop-color="#5b4cc4"/><stop offset="1" stop-color="#0e7490"/></linearGradient>
    <marker id="arrow" viewBox="0 0 12 12" refX="10" refY="6" markerWidth="10" markerHeight="10" orient="auto-start-reverse"><path d="M2 2 L10 6 L2 10 Z" fill="#174e86"/></marker>
    <filter id="shadow" x="-20%" y="-20%" width="140%" height="140%"><feDropShadow dx="0" dy="12" stdDeviation="14" flood-color="#0f172a" flood-opacity=".16"/></filter>
    <style>
      .title{font:900 34px Arial,sans-serif;fill:#0f172a}
      .sub{font:600 18px Arial,sans-serif;fill:#526176}
      .label{font:800 18px Arial,sans-serif;fill:#0f172a}
      .small{font:600 14px Arial,sans-serif;fill:#526176}
      .tiny{font:700 12px Arial,sans-serif;fill:#526176}
      .white{fill:#fff}
      .line{stroke:#174e86;stroke-width:5;fill:none;marker-end:url(#arrow);stroke-linecap:round;stroke-linejoin:round}
      .line2{stroke:#0e766e;stroke-width:4;fill:none;marker-end:url(#arrow);stroke-linecap:round;stroke-linejoin:round}
      .dash{stroke:#64748b;stroke-width:4;fill:none;stroke-dasharray:10 9;marker-end:url(#arrow);stroke-linecap:round}
      .box{fill:#fff;stroke:#dbe6f4;stroke-width:2;filter:url(#shadow)}
      .soft{fill:#ecf3fb;stroke:#dbe6f4;stroke-width:2}
      .blue{fill:url(#blue);filter:url(#shadow)}
      .violet{fill:url(#violet);filter:url(#shadow)}
    </style>
  </defs>
  <rect width="1200" height="720" rx="34" fill="url(#bg)"/>
  <circle cx="1110" cy="90" r="160" fill="#0e766e" opacity=".10"/>
  <circle cx="120" cy="625" r="185" fill="#174e86" opacity=".10"/>
  <text class="title" x="52" y="62">Protocol Stack Impact</text>
  <text class="sub" x="52" y="93">PQC changes must survive the full network and verification path</text>
  
  <rect class="box" x="120" y="155" width="960" height="88" rx="22"/><text class="label" x="185" y="207">Clients</text><text class="small" x="355" y="207">browsers, mobile apps, SSH clients, VPN clients, mail clients</text>
  <rect class="box" x="120" y="275" width="960" height="88" rx="22"/><text class="label" x="185" y="327">Middleboxes</text><text class="small" x="355" y="327">CDN, WAF, proxies, gateways, load balancers, inspection tools</text>
  <rect class="box" x="120" y="395" width="960" height="88" rx="22"/><text class="label" x="185" y="447">Protocols</text><text class="small" x="355" y="447">TLS, SSH, VPN, PKI, S/MIME, code signing, package verification</text>
  <rect class="box" x="120" y="515" width="960" height="88" rx="22"/><text class="label" x="185" y="567">Verifiers</text><text class="small" x="355" y="567">OS, browser, device bootloader, package manager, customer policy engine</text>
  <path class="line" d="M600 240 V270"/><path class="line" d="M600 360 V390"/><path class="line" d="M600 480 V510"/>
  <path d="M1025 200 C1110 290 1110 470 1025 558" stroke="#b42318" stroke-width="6" fill="none" marker-end="url(#arrow)"/><text class="small" x="1020" y="380" transform="rotate(90 1020 380)">failure can happen at any layer</text>

</svg>